HIERARCHY
ROOT Hips
{
	OFFSET 0.000000 0.000000 0.000000
	CHANNELS 6 Xposition Yposition Zposition Zrotation Yrotation Xrotation 
	JOINT LHipJoint
	{
		OFFSET 0.000000 0.000000 0.000000
		CHANNELS 3 Zrotation Yrotation Xrotation
		JOINT LeftUpLeg
		{
			OFFSET 1.363060 -1.794630 0.839290
			CHANNELS 3 Zrotation Yrotation Xrotation
			JOINT LeftLeg
			{
				OFFSET 2.448110 -6.726130 0.000000
				CHANNELS 3 Zrotation Yrotation Xrotation
				JOINT LeftFoot
				{
					OFFSET 2.562200 -7.039590 0.000000
					CHANNELS 3 Zrotation Yrotation Xrotation
					JOINT LeftToeBase
					{
						OFFSET 0.157640 -0.433110 2.322550
						CHANNELS 3 Zrotation Yrotation Xrotation
						End Site
						{
							OFFSET 0.000000 0.000000 0.000000
						}
					}
				}
			}
		}
	}
	JOINT RHipJoint
	{
		OFFSET 0.000000 0.000000 0.000000
		CHANNELS 3 Zrotation Yrotation Xrotation
		JOINT RightUpLeg
		{
			OFFSET -1.305520 -1.794630 0.839290
			CHANNELS 3 Zrotation Yrotation Xrotation
			JOINT RightLeg
			{
				OFFSET -2.542530 -6.985550 0.000000
				CHANNELS 3 Zrotation Yrotation Xrotation
				JOINT RightFoot
				{
					OFFSET -2.568260 -7.056230 0.000000
					CHANNELS 3 Zrotation Yrotation Xrotation
					JOINT RightToeBase
					{
						OFFSET -0.164730 -0.452590 2.363150
						CHANNELS 3 Zrotation Yrotation Xrotation
						End Site
						{
							OFFSET 0.000000 0.000000 0.000000
						}
					}
				}
			}
		}
	}
	JOINT LowerBack
	{
		OFFSET 0.000000 0.000000 0.000000
		CHANNELS 3 Zrotation Yrotation Xrotation
		JOINT Spine
		{
			OFFSET 0.028270 2.035590 -0.193380
			CHANNELS 3 Zrotation Yrotation Xrotation
			JOINT Spine1
			{
				OFFSET 0.056720 2.048850 -0.042750
				CHANNELS 3 Zrotation Yrotation Xrotation
				JOINT Neck
				{
					OFFSET 0.000000 0.000000 0.000000
					CHANNELS 3 Zrotation Yrotation Xrotation
					JOINT Neck1
					{
						OFFSET -0.054170 1.746240 0.172020
						CHANNELS 3 Zrotation Yrotation Xrotation
						JOINT Head
						{
							OFFSET 0.104070 1.761360 -0.123970
							CHANNELS 3 Zrotation Yrotation Xrotation
							End Site
							{
								OFFSET 0.000000 0.000000 0.000000
							}
						}
					}
				}
				JOINT LeftShoulder
				{
					OFFSET 0.000000 0.000000 0.000000
					CHANNELS 3 Zrotation Yrotation Xrotation
					JOINT LeftArm
					{
						OFFSET 3.362410 1.200890 -0.311210
						CHANNELS 3 Zrotation Yrotation Xrotation
						JOINT LeftForeArm
						{
							OFFSET 4.983000 -0.000000 -0.000000
							CHANNELS 3 Zrotation Yrotation Xrotation
							JOINT LeftHand
							{
								OFFSET 3.483560 -0.000000 -0.000000
								CHANNELS 3 Zrotation Yrotation Xrotation
								JOINT LeftFingerBase
								{
									OFFSET 0.000000 0.000000 0.000000
									CHANNELS 3 Zrotation Yrotation Xrotation
									JOINT LeftHandIndex1
									{
										OFFSET 0.715260 -0.000000 -0.000000
										CHANNELS 3 Zrotation Yrotation Xrotation
										End Site
										{
											OFFSET 0.000000 0.000000 0.000000
										}
									}
								}
								JOINT LThumb
								{
									OFFSET 0.000000 0.000000 0.000000
									CHANNELS 3 Zrotation Yrotation Xrotation
									End Site
									{
										OFFSET 0.000000 0.000000 0.000000
									}
								}
							}
						}
					}
				}
				JOINT RightShoulder
				{
					OFFSET 0.000000 0.000000 0.000000
					CHANNELS 3 Zrotation Yrotation Xrotation
					JOINT RightArm
					{
						OFFSET -3.136600 1.374050 -0.404650
						CHANNELS 3 Zrotation Yrotation Xrotation
						JOINT RightForeArm
						{
							OFFSET -5.241900 -0.000000 -0.000000
							CHANNELS 3 Zrotation Yrotation Xrotation
							JOINT RightHand
							{
								OFFSET -3.444170 -0.000000 -0.000000
								CHANNELS 3 Zrotation Yrotation Xrotation
								JOINT RightFingerBase
								{
									OFFSET 0.000000 0.000000 0.000000
									CHANNELS 3 Zrotation Yrotation Xrotation
									JOINT RightHandIndex1
									{
										OFFSET -0.622530 -0.000000 -0.000000
										CHANNELS 3 Zrotation Yrotation Xrotation
										End Site
										{
											OFFSET 0.000000 0.000000 0.000000
										}
									}
								}
								JOINT RThumb
								{
									OFFSET 0.000000 0.000000 0.000000
									CHANNELS 3 Zrotation Yrotation Xrotation
									End Site
									{
										OFFSET 0.000000 0.000000 0.000000
									}
								}
							}
						}
					}
				}
			}
		}
	}
}
MOTION
Frames: 5
Frame Time: 0.008333
-0.034634 16.825952 -0.794976 176.601292 84.784224 170.056448 -11.360194 5.273465 -0.189643 9.042644 11.308229 11.295747 0.360946 2.702189 35.774785 1.183060 -5.614574 25.609401 -3.558700 0.000000 -73.470699 9.283092 -0.818727 -1.862366 14.832324 -18.291986 -19.760834 1.524105 -0.758771 21.157873 -4.204519 -19.922937 -10.166655 -0.156000 0.000000 -7.501100 0.965507 -5.090188 0.074506 -0.184546 -5.265450 -2.020240 -5.266559 -5.188174 2.965141 8.628359 -21.035523 -8.799800 -2.165787 -0.149813 -0.279361 0.000000 0.000000 0.000000 -0.443492 14.834091 1.088971 -30.774735 -6.413180 7.381110 -2.057965 -46.014289 0.001697 0.855156 -0.542674 -0.004510 -0.124862 0.098139 0.000000 0.000000 0.000000 0.000000 0.000000 0.000000 0.000000 14.411017 -20.110423 -1.059739 76.782782 -25.901291 -3.582463 4.655644 23.461688 -0.008311 11.289520 -0.025407 -0.006667 0.042425 0.042688 -0.000000 0.000000 0.000000 0.000000 0.000000 0.000000 0.000000 
0.127225 16.822506 -0.740804 178.256968 84.859246 171.630058 -11.454521 5.214490 -0.203516 9.677425 11.482670 10.094899 0.448262 2.751775 38.055004 1.313674 -5.135061 26.443083 -3.447700 0.000000 -68.932699 9.241034 -0.888690 -1.930854 15.093624 -18.406153 -19.439728 1.539822 -0.822367 21.999746 -4.199067 -19.735732 -10.904514 0.149100 0.000000 -5.394800 1.132544 -5.052335 0.133744 -0.156912 -5.236913 -2.024618 -5.287793 -5.160249 2.932904 8.702114 -20.962614 -8.814906 -2.162791 -0.149506 -0.282663 0.000000 0.000000 0.000000 -0.402540 14.852284 1.073348 -31.255691 -5.751354 7.677455 -2.077557 -46.150625 0.001963 0.725256 -0.535285 -0.003708 -0.124763 0.093927 0.000000 0.000000 0.000000 0.000000 0.000000 0.000000 0.000000 14.407639 -19.978635 -1.042899 76.495204 -25.290432 -3.773366 4.639908 23.363297 -0.007736 11.077156 0.025833 -0.001354 0.044157 0.040832 -0.000000 0.000000 0.000000 0.000000 0.000000 0.000000 0.000000 
0.286024 16.818598 -0.685907 179.746760 84.937307 173.049847 -11.540607 5.141244 -0.233008 10.222109 11.683031 8.826544 0.531872 2.809739 40.346064 1.443248 -4.104865 26.828454 -3.000801 -0.000000 -64.319100 9.195783 -0.950829 -1.991144 15.355077 -18.485967 -19.037507 1.552503 -0.864934 22.676817 -4.220225 -19.644567 -11.715971 0.474400 0.000000 -3.398899 1.271802 -5.013774 0.203868 -0.135970 -5.205604 -2.025934 -5.311744 -5.129271 2.901962 8.783623 -20.902253 -8.831955 -2.160657 -0.149227 -0.286502 0.000000 0.000000 0.000000 -0.365734 14.861149 1.058187 -31.745059 -5.062066 8.016279 -2.099704 -46.253499 0.002204 0.596540 -0.523779 -0.002904 -0.124780 0.089131 0.000000 0.000000 0.000000 0.000000 0.000000 0.000000 0.000000 14.416404 -19.858552 -1.027029 76.190842 -24.614589 -3.916442 4.616800 23.313392 -0.007040 10.837247 0.111136 0.006960 0.045842 0.038541 -0.000000 0.000000 0.000000 0.000000 0.000000 0.000000 0.000000 
0.441940 16.814629 -0.630304 -178.968213 85.016591 174.275341 -11.617405 5.055256 -0.275983 10.664326 11.896331 7.507807 0.614631 2.877620 42.614171 1.571490 -2.553392 26.744320 -2.240700 -0.000001 -59.846500 9.149241 -1.005160 -2.042366 15.607634 -18.525146 -18.557797 1.561482 -0.889407 23.201514 -4.263918 -19.637422 -12.570069 0.812800 -0.000001 -1.582100 1.380448 -4.974571 0.282030 -0.122242 -5.171412 -2.024699 -5.338191 -5.095130 2.871701 8.870268 -20.857224 -8.847414 -2.161035 -0.149171 -0.289958 0.000000 0.000000 0.000000 -0.334455 14.850527 1.042052 -32.243217 -4.334879 8.392809 -2.124288 -46.321322 0.002420 0.468056 -0.508845 -0.002103 -0.124864 0.083663 0.000000 0.000000 0.000000 0.000000 0.000000 0.000000 0.000000 14.441780 -19.753897 -1.013646 75.862757 -23.882694 -3.995930 4.586721 23.319415 -0.006239 10.579712 0.232330 0.018177 0.047401 0.035846 -0.000000 0.000000 0.000000 0.000000 0.000000 0.000000 0.000000 
0.595052 16.811105 -0.574152 -177.902169 85.099706 175.289827 -11.684501 4.957912 -0.330088 10.995368 12.109707 6.159079 0.697688 2.954988 44.819922 1.699522 -0.558152 26.196141 -1.235600 -0.000001 -55.725700 9.103068 -1.052027 -2.084787 15.844610 -18.519724 -18.005004 1.566536 -0.899008 23.587817 -4.324738 -19.696870 -13.435434 -178.843501 0.000000 -0.015100 1.459271 -4.934170 0.366730 -0.115488 -5.133801 -2.020606 -5.367001 -5.057244 2.843869 8.959762 -20.829159 -8.860162 -2.164707 -0.149416 -0.292828 0.000000 0.000000 0.000000 -0.314956 14.832813 1.023877 -32.748870 -3.593305 8.810470 -2.151787 -46.336741 0.002604 0.343862 -0.492090 -0.001302 -0.125060 0.077516 0.000000 0.000000 0.000000 0.000000 0.000000 0.000000 0.000000 14.486744 -19.667206 -1.004915 75.505065 -23.096032 -4.008318 4.551184 23.377345 -0.005352 10.317689 0.391751 0.032395 0.048772 0.032778 -0.000000 0.000000 0.000000 0.000000 0.000000 0.000000 0.000000 
